<?xml version="1.0" encoding="utf-8"?>
<!-- Generator: Adobe Illustrator 16.0.4, SVG Export Plug-In . SVG Version: 6.00 Build 0)  -->
<!DOCTYPE svg PUBLIC "-//W3C//DTD SVG 1.1//EN" "http://www.w3.org/Graphics/SVG/1.1/DTD/svg11.dtd">
<svg version="1.1" id="Layer_1" xmlns="http://www.w3.org/2000/svg" xmlns:xlink="http://www.w3.org/1999/xlink" x="0px" y="0px"
	 width="52px" height="52px" viewBox="-10 0 52 52" enable-background="new -10 0 52 52" xml:space="preserve">
<g>
	<path id="Page" fill="#4D9379" d="M27.174,8.132c-3.045-2.955-6.328-5.327-9.022-5.649c-0.146-0.021-0.297-0.034-0.474-0.038
		H-0.037c-0.283,0-0.56,0.108-0.761,0.316c-0.195,0.197-0.314,0.477-0.314,0.763V48.48c0,0.256,0.11,0.546,0.315,0.761
		c0.205,0.201,0.473,0.313,0.762,0.313h32.062c0.281,0,0.552-0.109,0.757-0.313c0.204-0.201,0.329-0.475,0.329-0.761V18.563
		C33.037,15.095,30.319,11.307,27.174,8.132z M25.663,9.655c1.405,1.373,2.667,2.927,3.611,4.424
		c-0.837-0.327-1.674-0.562-2.479-0.757c-1.783-0.399-3.528-0.556-4.582-0.621c0.003-0.232,0.007-0.493,0.007-0.777
		c0-1.518-0.109-3.678-0.621-5.584c-0.005-0.02-0.008-0.038-0.017-0.053C22.915,7.168,24.369,8.336,25.663,9.655z M30.945,47.399
		H1.037V4.596h16.657v0.003c0.727-0.042,1.354,0.675,1.835,2.314c0.437,1.564,0.545,3.599,0.545,5.012
		c0.004,1.035-0.044,1.729-0.044,1.729l-0.089,1.137l1.146,0.014c0.005,0,2.646,0.032,5.237,0.617
		c2.489,0.542,4.436,1.609,4.62,2.823c0.007,0.109,0.007,0.217,0.007,0.317v28.836H30.945z"/>
	<g id="heart">
		<path fill="#EA3556" d="M26.621,18.809c-2.922-2.895-7.593-2.957-10.622-0.232c-3.027-2.724-7.698-2.663-10.622,0.232
			c-3.012,2.983-3.012,7.818,0,10.802c0.86,0.853,8.9,8.808,8.9,8.808c0.952,0.945,2.492,0.945,3.444,0c0,0,8.801-8.712,8.899-8.808
			C29.636,26.627,29.636,21.792,26.621,18.809z M25.473,28.472l-8.898,8.812c-0.317,0.313-0.833,0.313-1.148,0l-8.9-8.812
			c-2.375-2.349-2.375-6.175,0-8.526c2.291-2.266,5.971-2.348,8.381-0.179l1.092,0.982l1.092-0.982
			c2.411-2.169,6.09-2.089,8.382,0.179C27.849,22.297,27.849,26.123,25.473,28.472z"/>
		<path fill="#EA3556" d="M10.565,20.609c-0.001,0-0.001,0-0.002,0c-1.889,0.003-3.419,1.534-3.419,3.421l0,0
			c0,0.224,0.181,0.404,0.402,0.404c0.223,0,0.403-0.181,0.403-0.404v-0.001c0-1.442,1.171-2.615,2.615-2.615h0.001
			c0.222,0,0.403-0.182,0.403-0.402C10.968,20.79,10.788,20.609,10.565,20.609z"/>
	</g>
</g>
</svg>
